<?xml version="1.0" encoding="utf-8"?>
<!-- Generator: Adobe Illustrator 19.2.1, SVG Export Plug-In . SVG Version: 6.00 Build 0)  -->
<svg version="1.1" xmlns="http://www.w3.org/2000/svg" xmlns:xlink="http://www.w3.org/1999/xlink" x="0px" y="0px"
	 viewBox="0 0 62.2 47.1" style="enable-background:new 0 0 62.2 47.1;" xml:space="preserve">
<style type="text/css">
	.st0{display:none;}
	.st1{fill:none;stroke:#000000;stroke-width:0.261;stroke-miterlimit:10;}
	.st2{fill:none;stroke:#FFFFFF;stroke-width:0.1487;stroke-miterlimit:10;}
</style>
<g id="Layer_1">
	<path d="M4.8,32.9c1.3,0.1,1.7-0.3,2.4,0.3s2.1,0.6,1.7,1.6c-0.4,1-1.5,2-2,3.5c-0.4,1.4-1,1.4-0.1,1.9c1.8,1.1,2.8,1.3,5.3,1.3
		s0.6,0,4.5-0.2s2.9-0.6,3.9-0.2c1,0.3,2.2,0.1,3.5-0.1c1.4-0.1,2.9,0.1,2.5-0.5c-0.5-0.6-0.7-0.9-1.3-1.1c-0.6-0.1-1.3,1.2-1.7-1.3
		c-0.6-3.3-1.5-4-0.6-5.9s1.1-3.3,1.6-4.9c0.6-1.5,0.5-2.9-0.8-3.8c-1.2-0.9,0.1-0.1-1.7-0.7c-1.8-0.6-2.2,0.2-2.6-0.9
		c-0.5-1.1,1.3-1.2,2.2-2.5c0.9-1.3-0.8-2.8-0.8-2.8l-1.8-1.7l-0.8,1.2c0,0-0.7-0.4-1.7,0.2c-1,0.6-3.2-0.8-3.5-0.6s1.9,1.4,1.9,1.4
		L13.6,19c0,0,0.4,1.1-0.1,1.5c-0.5,0.4-0.4,1.2,1,1.4s1.2-0.8,2.1,0.3c0.9,1.1,0.8,3-0.1,4c-0.9,1-4.1,5.8-3.8,7.5
		c0.3,1.8-0.4,3.7,1.1,4.5c1.5,0.9,0.8,2.5-0.6,2.4c-1.4-0.1-5.9,0-5.4-1c0.4-1,0.9-2.8,1.4-3.3c0.4-0.6,1.3-2,0.4-2.8
		c-0.9-0.8-1.7-1.7-2.8-1.5c-1.2,0.1-3.2,0-3.6,1s-0.3,2,0.1,1.9C3.7,34.8,4.8,32.9,4.8,32.9z"/>
	<rect x="-122.2" y="-172.8" style="fill:none;" width="0" height="2.3"/>
</g>
<g id="Layer_2" class="st0">
</g>
<g id="Layer_3">
	<path d="M43.1,11.6c0,0,1.2,0.1,1.4,0.6c0.2,0.5,0.7,1.2,1.2,0.7s0.5-1.4,0.1-1.7c-0.4-0.3-0.9-1.6-0.8-2.3c0.1-0.7,0.7-2.8,0-3.1
		c-0.7-0.3-1.4-0.8-2.1-0.5s-1,0.2-1.7,0.3s-1.5,0.3-2.1,0c-0.6-0.3-0.3-0.7-1.4-0.7c-1.1,0-1.3-1-1.9,0.5c-0.6,1.5-0.7,1.8-1,2.6
		c-0.3,0.8-0.5,1.2-0.2,1.9s-1.7,0.5-2.3,1.2c-0.4,0.5,0,1.7,0.6,2.5c0.5,0.7-0.4,1.9,0.7,1.6c1.3-0.3,0.8-0.2,1.3-0.4
		c1.3-0.5,0.7,1.6,0.5,2c-0.1,0.4-0.3,2.3-0.3,3s-0.9,1.5-1.1,2.8s-0.6,5.1-0.5,6.7c0.1,1.5-0.7,4-1,5.2s-0.4,1.8-1.2,3.3
		c-0.8,1.5-2.1,2.5-1.8,3c0.6,1,1.1,0.4,2.6,0.3c1.5-0.1,0.8-1,1.4-2c0.6-1,0.7-1.5,1.8-3c1.1-1.5,0.4-1.1,0.9-2.7
		c0.5-1.6,2-3.7,1.7-2c-0.3,1.7-1,3.3-0.4,4.3c0.6,1,0.9,1.2,0.9,2.2s-1,0.9-1.5,1.9s-0.5,1,0.1,1.3c0.6,0.3,5.2,0.5,6.8,0.4
		c1.5-0.1,5.5,0.2,6.2-0.8c0.7-1-0.1-1.9,0.6-1.8c0.7,0.1,4.1-1.7,5.2-3.6c1.1-1.8,0.8-7.4,0.3-5.5c-0.1,0.5-0.2,3.3-1,4.6
		c-0.7,1.3-1.7,1.5-2.6,2.3c-0.7,0.6-2.2,1.2-2.2,0.8c0-1.7,1.3-5.5,0.3-8.1c-1-2.8-3.1-5.7-4.4-7.4s-3.7-3.3-3.9-4.9
		s-0.1-3.1,0.3-3.7C43.1,12.8,43.1,11.6,43.1,11.6z"/>
	<path class="st1" d="M55.5,26.9c1.9,0.3,3.1,3.6,2.1,4.7"/>
	<path class="st1" d="M58.3,26.6c1,0.8,1.7,5.5,0.5,6.1"/>
	<path class="st2" d="M33.7,9c0.4,0.5,1.4,0.9,1.7,1.5s-0.1,1.9,0.7,1.4c0.8-0.5,1.2-1.8,1.1-2.3c-0.1-0.5,0.3-1.2,0.7-1.2"/>
</g>
</svg>
